<svg width="154" height="207" viewBox="0 0 154 207" fill="none" xmlns="http://www.w3.org/2000/svg">
<path d="M29 17.5L19.5 0.5C19.5 12 19.5 16.5 20 27C20.5 37.5 21 44 21 44L22 57C22 57 23 66.5 24.5 77C26 87.5 29.5 100 29.5 100H34.5V97L29 17.5Z" fill="#E0BE00" stroke="#E0BE00" stroke-width="0.1"/>
<path d="M128 18.5L137.5 1.5C137.5 13 137.5 17.5 137 28C136.5 38.5 136 45 136 45L135 58C135 58 134 67.5 132.5 78C131 88.5 127.5 101 127.5 101H122.5V98L128 18.5Z" fill="#E0BE00" stroke="#E0BE00" stroke-width="0.1"/>
<path d="M132.087 203.236L131.577 203.5C130.577 190.5 129.577 183.5 123.577 178.5C116.342 190.167 111.263 196.106 101.077 206C91.3774 196.538 86.2773 190.008 77.5773 178.5C70.1235 189.735 65.2526 196 55.5773 205.5C45.1528 195.792 39.9174 189.849 31.5773 178.5C26.0773 183 23.5773 192 23.5773 203.5C13.895 198.597 2.5773 191 1.57733 186.5C0.150735 180.08 1.57737 176 3.57736 172.5C8.5773 165.5 12.5773 164 15.0774 150.5C20.2414 122.615 19.0773 114.5 31.5773 94.5C24.1185 62.5794 21.5406 45.2239 21.0773 13.5L29 18L61 74C74.7237 70.8694 82.5214 70.9936 96.5 74L112.5 46L128.5 17.5L135.577 13C135.283 45.7622 132.646 64.0346 124.577 96.5L127.077 100.5C128.577 104.5 133.577 105 139.077 147C141.5 165.5 150.577 168.5 152.077 173.5C153.577 178.5 155.077 182.5 152.577 188.5C146.288 195.875 142.015 198.09 132.087 203.236Z" fill="#282828" stroke="#282828" stroke-width="0.1"/>
<ellipse cx="78" cy="137.5" rx="47" ry="40.5" fill="#DACACA"/>
<path d="M54.4999 123C53.4999 126 38.9999 140.5 30.4999 150.5C26.4999 148.5 24.0958 142.827 23.9999 138C23.904 133.173 24.1235 133.135 24.9999 127C25.8762 120.865 31.4998 104.5 37.4999 96.5002C43.4999 88.5 56.9999 73.5002 78.4999 73.5002C99.9998 73.5002 116 92.5005 119 96.5002C122 100.5 129.384 114.303 131.5 127C132.209 131.255 132.5 130.5 132.5 138C132.5 145.501 126 150.5 126 150.5L113.75 136.75L108 130.5C108 130.5 101.5 124 101.5 123C101.5 122 78 157 78 157L54.4999 123Z" fill="#E0BE00" stroke="#E0BE00" stroke-width="0.1"/>
<path d="M53 157L50.4879 156.988C50.4879 156.988 50.4729 157.418 50.5 158C51.0408 169.597 77.1115 168.98 77.6095 168.98C78.1076 168.98 107.198 169.973 107.564 157.823C107.575 157.435 107.564 157.479 107.564 157.479L105.003 157.479C105.003 157.479 105.505 165.928 77.8818 165.928C50.2588 165.928 53 157 53 157Z" fill="#282828" stroke="#282828" stroke-width="0.1"/>
</svg>
